<svg id="visual" viewBox="0 0 2560 1600" width="2560" height="1600" xmlns="http://www.w3.org/2000/svg" xmlns:xlink="http://www.w3.org/1999/xlink" version="1.1"><rect x="0" y="0" width="2560" height="1600" fill="#001220"></rect><defs><linearGradient id="grad1_0" x1="37.5%" y1="0%" x2="100%" y2="100%"><stop offset="17.999999999999996%" stop-color="#001220" stop-opacity="1"></stop><stop offset="82%" stop-color="#001220" stop-opacity="1"></stop></linearGradient></defs><defs><linearGradient id="grad2_0" x1="0%" y1="0%" x2="62.5%" y2="100%"><stop offset="17.999999999999996%" stop-color="#001220" stop-opacity="1"></stop><stop offset="82%" stop-color="#001220" stop-opacity="1"></stop></linearGradient></defs><g transform="translate(2560, 0)"><path d="M0 1283C-106.7 1259.2 -213.4 1235.5 -325.6 1215.1C-437.8 1194.8 -555.6 1177.9 -641.5 1111.1C-727.5 1044.3 -781.6 927.6 -823.1 823.1C-864.5 718.6 -893.3 626.3 -942.2 544C-991.2 461.7 -1060.3 389.2 -1120.5 300.2C-1180.6 211.2 -1231.8 105.6 -1283 0L0 0Z" fill="#7950f2"></path></g><g transform="translate(0, 1600)"><path d="M0 -1283C116.6 -1282.2 233.2 -1281.3 332.1 -1239.3C431 -1197.3 512.2 -1114 608.5 -1054C704.8 -993.9 816.3 -956.9 872.6 -872.6C928.8 -788.2 929.9 -656.4 963.9 -556.5C997.9 -456.6 1064.7 -388.5 1123.4 -301C1182 -213.6 1232.5 -106.8 1283 0L0 0Z" fill="#7950f2"></path></g></svg>