<svg id="visual" viewBox="0 0 2560 1600" width="2560" height="1600" xmlns="http://www.w3.org/2000/svg" xmlns:xlink="http://www.w3.org/1999/xlink" version="1.1"><rect x="0" y="0" width="2560" height="1600" fill="#001220"></rect><defs><linearGradient id="grad1_0" x1="37.5%" y1="0%" x2="100%" y2="100%"><stop offset="17.999999999999996%" stop-color="#001220" stop-opacity="1"></stop><stop offset="82%" stop-color="#001220" stop-opacity="1"></stop></linearGradient></defs><defs><linearGradient id="grad2_0" x1="0%" y1="0%" x2="62.5%" y2="100%"><stop offset="17.999999999999996%" stop-color="#001220" stop-opacity="1"></stop><stop offset="82%" stop-color="#001220" stop-opacity="1"></stop></linearGradient></defs><g transform="translate(2560, 0)"><path d="M0 1283C-118 1287 -236 1291 -332.1 1239.3C-428.1 1187.6 -502.2 1080.3 -583 1009.8C-663.8 939.3 -751.3 905.8 -854.9 854.9C-958.5 804 -1078.1 735.9 -1095.5 632.5C-1112.9 529.1 -1028 390.6 -1042.2 279.3C-1056.4 168 -1169.7 84 -1283 0L0 0Z" fill="#7950f2"></path></g><g transform="translate(0, 1600)"><path d="M0 -1283C105.2 -1233.3 210.3 -1183.5 305.4 -1139.8C400.5 -1096.1 485.6 -1058.4 595.5 -1031.4C705.4 -1004.5 840.3 -988.2 907.2 -907.2C974.2 -826.3 973.2 -680.7 983.8 -568C994.4 -455.3 1016.5 -375.4 1068.3 -286.3C1120.1 -197.1 1201.6 -98.5 1283 0L0 0Z" fill="#7950f2"></path></g></svg>