<svg id="visual" viewBox="0 0 2560 1600" width="2560" height="1600" xmlns="http://www.w3.org/2000/svg" xmlns:xlink="http://www.w3.org/1999/xlink" version="1.1"><rect x="0" y="0" width="2560" height="1600" fill="#222"></rect><path d="M0 1150L366 1070L731 1055L1097 1078L1463 1173L1829 997L2194 1160L2560 1169L2560 1601L2194 1601L1829 1601L1463 1601L1097 1601L731 1601L366 1601L0 1601Z" fill="#7950f2"></path><path d="M0 1199L366 1116L731 1085L1097 1117L1463 1215L1829 1211L2194 1153L2560 1158L2560 1601L2194 1601L1829 1601L1463 1601L1097 1601L731 1601L366 1601L0 1601Z" fill="#4870fa"></path><path d="M0 1239L366 1217L731 1232L1097 1269L1463 1241L1829 1196L2194 1193L2560 1155L2560 1601L2194 1601L1829 1601L1463 1601L1097 1601L731 1601L366 1601L0 1601Z" fill="#1187f8"></path><path d="M0 1352L366 1306L731 1276L1097 1296L1463 1256L1829 1307L2194 1286L2560 1280L2560 1601L2194 1601L1829 1601L1463 1601L1097 1601L731 1601L366 1601L0 1601Z" fill="#0098ee"></path><path d="M0 1395L366 1353L731 1334L1097 1414L1463 1464L1829 1415L2194 1419L2560 1424L2560 1601L2194 1601L1829 1601L1463 1601L1097 1601L731 1601L366 1601L0 1601Z" fill="#00a3d9"></path><path d="M0 1497L366 1504L731 1499L1097 1453L1463 1486L1829 1494L2194 1479L2560 1541L2560 1601L2194 1601L1829 1601L1463 1601L1097 1601L731 1601L366 1601L0 1601Z" fill="#15aabf"></path></svg>