<svg id="visual" viewBox="0 0 2560 1600" width="2560" height="1600" xmlns="http://www.w3.org/2000/svg" xmlns:xlink="http://www.w3.org/1999/xlink" version="1.1"><g stroke-width="1" stroke-linejoin="bevel"><path d="M1408.2 805L1126.8 786L1406.2 1031.7Z" fill="#001b30" stroke="#001b30"></path><path d="M1126.8 786L1155.8 1096.7L1406.2 1031.7Z" fill="#003c8a" stroke="#003c8a"></path><path d="M1408.2 805L1100.8 564.3L1126.8 786Z" fill="#003574" stroke="#003574"></path><path d="M1126.8 786L832.3 1048.7L1155.8 1096.7Z" fill="#00101c" stroke="#00101c"></path><path d="M1686.7 774L1452.2 532.3L1408.2 805Z" fill="#454ccb" stroke="#454ccb"></path><path d="M1408.2 805L1452.2 532.3L1100.8 564.3Z" fill="#003c8a" stroke="#003c8a"></path><path d="M1155.8 1096.7L1412.2 1326.3L1406.2 1031.7Z" fill="#002446" stroke="#002446"></path><path d="M1406.2 1031.7L1686.7 774L1408.2 805Z" fill="#00101c" stroke="#00101c"></path><path d="M823.3 776L832.3 1048.7L1126.8 786Z" fill="#003c8a" stroke="#003c8a"></path><path d="M1155.8 1096.7L1150.8 1353.3L1412.2 1326.3Z" fill="#003574" stroke="#003574"></path><path d="M858.3 1361.3L1150.8 1353.3L1155.8 1096.7Z" fill="#002d5d" stroke="#002d5d"></path><path d="M1742.7 1061.7L1686.7 774L1406.2 1031.7Z" fill="#00101c" stroke="#00101c"></path><path d="M886.3 543.3L823.3 776L1126.8 786Z" fill="#003c8a" stroke="#003c8a"></path><path d="M1699.7 1299.3L1742.7 1061.7L1406.2 1031.7Z" fill="#1642a0" stroke="#1642a0"></path><path d="M1109.8 257.7L886.3 543.3L1100.8 564.3Z" fill="#002d5d" stroke="#002d5d"></path><path d="M1100.8 564.3L886.3 543.3L1126.8 786Z" fill="#002446" stroke="#002446"></path><path d="M1412.2 1326.3L1699.7 1299.3L1406.2 1031.7Z" fill="#5e4fdf" stroke="#5e4fdf"></path><path d="M1434.2 1600L1699.7 1299.3L1412.2 1326.3Z" fill="#003574" stroke="#003574"></path><path d="M832.3 1048.7L858.3 1361.3L1155.8 1096.7Z" fill="#002446" stroke="#002446"></path><path d="M1686.7 774L1718.7 532.3L1452.2 532.3Z" fill="#002d5d" stroke="#002d5d"></path><path d="M1997.1 812L1718.7 532.3L1686.7 774Z" fill="#5e4fdf" stroke="#5e4fdf"></path><path d="M1383.2 233.7L1109.8 257.7L1100.8 564.3Z" fill="#001b30" stroke="#001b30"></path><path d="M1383.2 233.7L1100.8 564.3L1452.2 532.3Z" fill="#7950f2" stroke="#7950f2"></path><path d="M591.9 495.3L599.9 761L823.3 776Z" fill="#00101c" stroke="#00101c"></path><path d="M823.3 776L599.9 761L832.3 1048.7Z" fill="#002446" stroke="#002446"></path><path d="M832.3 1048.7L557.9 1307.3L858.3 1361.3Z" fill="#454ccb" stroke="#454ccb"></path><path d="M591.9 495.3L823.3 776L886.3 543.3Z" fill="#002d5d" stroke="#002d5d"></path><path d="M858.3 1361.3L1133.8 1600L1150.8 1353.3Z" fill="#002d5d" stroke="#002d5d"></path><path d="M1150.8 1353.3L1434.2 1600L1412.2 1326.3Z" fill="#003c8a" stroke="#003c8a"></path><path d="M1734.7 294.7L1383.2 233.7L1452.2 532.3Z" fill="#7950f2" stroke="#7950f2"></path><path d="M599.9 761L579.9 1075.7L832.3 1048.7Z" fill="#2d48b6" stroke="#2d48b6"></path><path d="M1133.8 1600L1434.2 1600L1150.8 1353.3Z" fill="#2d48b6" stroke="#2d48b6"></path><path d="M1955.1 1317.3L1974.1 1093.7L1742.7 1061.7Z" fill="#1642a0" stroke="#1642a0"></path><path d="M1742.7 1061.7L1997.1 812L1686.7 774Z" fill="#2d48b6" stroke="#2d48b6"></path><path d="M1955.1 1317.3L1742.7 1061.7L1699.7 1299.3Z" fill="#2d48b6" stroke="#2d48b6"></path><path d="M1974.1 1093.7L1997.1 812L1742.7 1061.7Z" fill="#454ccb" stroke="#454ccb"></path><path d="M1109.8 257.7L846.3 282.7L886.3 543.3Z" fill="#001b30" stroke="#001b30"></path><path d="M1978.1 282.7L1734.7 294.7L1718.7 532.3Z" fill="#002d5d" stroke="#002d5d"></path><path d="M1718.7 532.3L1734.7 294.7L1452.2 532.3Z" fill="#454ccb" stroke="#454ccb"></path><path d="M846.3 282.7L591.9 495.3L886.3 543.3Z" fill="#2d48b6" stroke="#2d48b6"></path><path d="M599.9 761L286.4 1046.7L579.9 1075.7Z" fill="#2d48b6" stroke="#2d48b6"></path><path d="M286.4 1046.7L557.9 1307.3L579.9 1075.7Z" fill="#5e4fdf" stroke="#5e4fdf"></path><path d="M579.9 1075.7L557.9 1307.3L832.3 1048.7Z" fill="#1642a0" stroke="#1642a0"></path><path d="M858.3 1361.3L819.3 1600L1133.8 1600Z" fill="#002d5d" stroke="#002d5d"></path><path d="M1735.7 1600L1955.1 1317.3L1699.7 1299.3Z" fill="#003574" stroke="#003574"></path><path d="M594.9 1600L819.3 1600L858.3 1361.3Z" fill="#454ccb" stroke="#454ccb"></path><path d="M1434.2 1600L1735.7 1600L1699.7 1299.3Z" fill="#00101c" stroke="#00101c"></path><path d="M1997.1 812L2023.1 515.3L1718.7 532.3Z" fill="#00101c" stroke="#00101c"></path><path d="M2262.6 555.3L2023.1 515.3L1997.1 812Z" fill="#003c8a" stroke="#003c8a"></path><path d="M1402.2 0L1148.8 0L1383.2 233.7Z" fill="#00101c" stroke="#00101c"></path><path d="M1383.2 233.7L1148.8 0L1109.8 257.7Z" fill="#003574" stroke="#003574"></path><path d="M1109.8 257.7L851.3 0L846.3 282.7Z" fill="#7950f2" stroke="#7950f2"></path><path d="M846.3 282.7L577.9 237.7L591.9 495.3Z" fill="#002446" stroke="#002446"></path><path d="M1692.7 0L1402.2 0L1383.2 233.7Z" fill="#002446" stroke="#002446"></path><path d="M1692.7 0L1383.2 233.7L1734.7 294.7Z" fill="#7950f2" stroke="#7950f2"></path><path d="M557.9 1307.3L594.9 1600L858.3 1361.3Z" fill="#00101c" stroke="#00101c"></path><path d="M2023.1 515.3L1978.1 282.7L1718.7 532.3Z" fill="#454ccb" stroke="#454ccb"></path><path d="M851.3 0L577.9 237.7L846.3 282.7Z" fill="#454ccb" stroke="#454ccb"></path><path d="M262.4 801L286.4 1046.7L599.9 761Z" fill="#2d48b6" stroke="#2d48b6"></path><path d="M262.4 801L599.9 761L270.4 537.3Z" fill="#003574" stroke="#003574"></path><path d="M557.9 1307.3L306.4 1600L594.9 1600Z" fill="#002d5d" stroke="#002d5d"></path><path d="M1735.7 1600L1993.1 1600L1955.1 1317.3Z" fill="#2d48b6" stroke="#2d48b6"></path><path d="M2288.6 1367.3L2261.6 1031.7L1974.1 1093.7Z" fill="#002446" stroke="#002446"></path><path d="M1974.1 1093.7L2261.6 1031.7L1997.1 812Z" fill="#001b30" stroke="#001b30"></path><path d="M270.4 537.3L599.9 761L591.9 495.3Z" fill="#003c8a" stroke="#003c8a"></path><path d="M1148.8 0L851.3 0L1109.8 257.7Z" fill="#00101c" stroke="#00101c"></path><path d="M2288.6 1367.3L1974.1 1093.7L1955.1 1317.3Z" fill="#5e4fdf" stroke="#5e4fdf"></path><path d="M2023.1 515.3L2287.6 252.7L1978.1 282.7Z" fill="#7950f2" stroke="#7950f2"></path><path d="M1997.1 0L1692.7 0L1734.7 294.7Z" fill="#003574" stroke="#003574"></path><path d="M2261.6 1031.7L2303.6 762L1997.1 812Z" fill="#1642a0" stroke="#1642a0"></path><path d="M322.4 241.7L270.4 537.3L591.9 495.3Z" fill="#454ccb" stroke="#454ccb"></path><path d="M2303.6 762L2262.6 555.3L1997.1 812Z" fill="#00101c" stroke="#00101c"></path><path d="M1978.1 282.7L1997.1 0L1734.7 294.7Z" fill="#001b30" stroke="#001b30"></path><path d="M0 1073.7L270.4 1351.3L286.4 1046.7Z" fill="#2d48b6" stroke="#2d48b6"></path><path d="M286.4 1046.7L270.4 1351.3L557.9 1307.3Z" fill="#003c8a" stroke="#003c8a"></path><path d="M1993.1 1600L2288.6 1367.3L1955.1 1317.3Z" fill="#1642a0" stroke="#1642a0"></path><path d="M2261.6 1031.7L2560 785L2303.6 762Z" fill="#5e4fdf" stroke="#5e4fdf"></path><path d="M851.3 0L562.9 0L577.9 237.7Z" fill="#1642a0" stroke="#1642a0"></path><path d="M577.9 237.7L322.4 241.7L591.9 495.3Z" fill="#1642a0" stroke="#1642a0"></path><path d="M562.9 0L322.4 241.7L577.9 237.7Z" fill="#002d5d" stroke="#002d5d"></path><path d="M270.4 1351.3L306.4 1600L557.9 1307.3Z" fill="#002446" stroke="#002446"></path><path d="M2287.6 252.7L1997.1 0L1978.1 282.7Z" fill="#7950f2" stroke="#7950f2"></path><path d="M1993.1 1600L2252.6 1600L2288.6 1367.3Z" fill="#002446" stroke="#002446"></path><path d="M2560 528.3L2287.6 252.7L2262.6 555.3Z" fill="#003c8a" stroke="#003c8a"></path><path d="M2262.6 555.3L2287.6 252.7L2023.1 515.3Z" fill="#002446" stroke="#002446"></path><path d="M0 535.3L262.4 801L270.4 537.3Z" fill="#454ccb" stroke="#454ccb"></path><path d="M0 535.3L0 820L262.4 801Z" fill="#003c8a" stroke="#003c8a"></path><path d="M262.4 801L0 820L286.4 1046.7Z" fill="#2d48b6" stroke="#2d48b6"></path><path d="M270.4 1351.3L0 1600L306.4 1600Z" fill="#00101c" stroke="#00101c"></path><path d="M0 820L0 1073.7L286.4 1046.7Z" fill="#002446" stroke="#002446"></path><path d="M2560 1075.7L2560 785L2261.6 1031.7Z" fill="#454ccb" stroke="#454ccb"></path><path d="M2303.6 762L2560 528.3L2262.6 555.3Z" fill="#7950f2" stroke="#7950f2"></path><path d="M2560 1075.7L2261.6 1031.7L2288.6 1367.3Z" fill="#1642a0" stroke="#1642a0"></path><path d="M2560 1347.3L2560 1075.7L2288.6 1367.3Z" fill="#001b30" stroke="#001b30"></path><path d="M0 266.7L0 535.3L270.4 537.3Z" fill="#002446" stroke="#002446"></path><path d="M0 266.7L270.4 537.3L322.4 241.7Z" fill="#2d48b6" stroke="#2d48b6"></path><path d="M0 1073.7L0 1369.3L270.4 1351.3Z" fill="#002446" stroke="#002446"></path><path d="M562.9 0L281.4 0L322.4 241.7Z" fill="#7950f2" stroke="#7950f2"></path><path d="M2560 0L2254.6 0L2287.6 252.7Z" fill="#00101c" stroke="#00101c"></path><path d="M2287.6 252.7L2254.6 0L1997.1 0Z" fill="#1642a0" stroke="#1642a0"></path><path d="M2560 785L2560 528.3L2303.6 762Z" fill="#1642a0" stroke="#1642a0"></path><path d="M2560 1600L2560 1347.3L2288.6 1367.3Z" fill="#00101c" stroke="#00101c"></path><path d="M281.4 0L0 266.7L322.4 241.7Z" fill="#002d5d" stroke="#002d5d"></path><path d="M0 1369.3L0 1600L270.4 1351.3Z" fill="#2d48b6" stroke="#2d48b6"></path><path d="M2560 528.3L2560 278.7L2287.6 252.7Z" fill="#2d48b6" stroke="#2d48b6"></path><path d="M2252.6 1600L2560 1600L2288.6 1367.3Z" fill="#454ccb" stroke="#454ccb"></path><path d="M281.4 0L0 0L0 266.7Z" fill="#003c8a" stroke="#003c8a"></path><path d="M2560 278.7L2560 0L2287.6 252.7Z" fill="#1642a0" stroke="#1642a0"></path></g></svg>